
<?xml version="1.0" encoding="UTF-8" standalone="no"?>
<!-- Created with Inkscape (http://www.inkscape.org/) -->

<svg
   xmlns:dc="http://purl.org/dc/elements/1.1/"
   xmlns:cc="http://creativecommons.org/ns#"
   xmlns:rdf="http://www.w3.org/1999/02/22-rdf-syntax-ns#"
   xmlns:svg="http://www.w3.org/2000/svg"
   xmlns="http://www.w3.org/2000/svg"
   xmlns:sodipodi="http://sodipodi.sourceforge.net/DTD/sodipodi-0.dtd"
   xmlns:inkscape="http://www.inkscape.org/namespaces/inkscape"
   width="374.87997"
   height="693.36047"
   id="svg2"
   version="1.1"
   inkscape:version="0.47 r22583"
   sodipodi:docname="Neues Dokument 1">
  <defs
     id="defs4">
    <inkscape:perspective
       sodipodi:type="inkscape:persp3d"
       inkscape:vp_x="0 : 526.18109 : 1"
       inkscape:vp_y="0 : 1000 : 0"
       inkscape:vp_z="744.09448 : 526.18109 : 1"
       inkscape:persp3d-origin="372.04724 : 350.78739 : 1"
       id="perspective10" />
    <inkscape:perspective
       id="perspective2824"
       inkscape:persp3d-origin="0.5 : 0.33333333 : 1"
       inkscape:vp_z="1 : 0.5 : 1"
       inkscape:vp_y="0 : 1000 : 0"
       inkscape:vp_x="0 : 0.5 : 1"
       sodipodi:type="inkscape:persp3d" />
    <inkscape:perspective
       id="perspective2866"
       inkscape:persp3d-origin="0.5 : 0.33333333 : 1"
       inkscape:vp_z="1 : 0.5 : 1"
       inkscape:vp_y="0 : 1000 : 0"
       inkscape:vp_x="0 : 0.5 : 1"
       sodipodi:type="inkscape:persp3d" />
  </defs>
  <sodipodi:namedview
     id="base"
     pagecolor="#ffffff"
     bordercolor="#666666"
     borderopacity="1.0"
     inkscape:pageopacity="0.0"
     inkscape:pageshadow="2"
     inkscape:zoom="1.0038069"
     inkscape:cx="187.43998"
     inkscape:cy="346.68024"
     inkscape:document-units="px"
     inkscape:current-layer="layer1"
     showgrid="false"
     inkscape:window-width="615"
     inkscape:window-height="939"
     inkscape:window-x="655"
     inkscape:window-y="25"
     inkscape:window-maximized="0" />
  <metadata
     id="metadata7">
    <rdf:RDF>
      <cc:Work
         rdf:about="">
        <dc:format>image/svg+xml</dc:format>
        <dc:type
           rdf:resource="http://purl.org/dc/dcmitype/StillImage" />
        <dc:title></dc:title>
      </cc:Work>
    </rdf:RDF>
  </metadata>
  <g
     inkscape:label="Ebene 1"
     inkscape:groupmode="layer"
     id="layer1"
     transform="translate(16.859249,-230.6774)">
    <path
       id="path2874"
       d="m 64.417812,908.63173 c -4.305605,-0.76468 -7.152572,-1.95563 -8.80094,-3.68149 -0.710063,-0.74338 -1.718655,-1.03486 -3.382072,-0.97725 -2.339047,0.081 -7.108159,-1.71551 -8.184169,-3.08276 -0.28392,-0.36081 -0.661642,-1.79706 -0.839311,-3.19166 -0.221469,-1.73776 -0.753812,-2.89072 -1.691719,-3.66391 -0.752679,-0.62056 -1.887366,-1.5504 -2.521388,-2.0664 -0.731938,-0.59558 -1.374867,-2.13916 -1.760875,-4.22759 -0.33438,-1.80918 -1.243874,-6.07965 -2.021071,-9.48991 -0.777145,-3.41026 -1.818712,-8.6102 -2.314468,-11.55541 -0.495808,-2.94523 -1.000074,-5.5147 -1.120596,-5.71002 -0.503696,-0.81604 -1.905058,-12.63728 -1.608794,-13.57079 0.183761,-0.579 -0.151457,-1.61984 -0.77844,-2.41689 -0.605618,-0.76993 -1.280055,-2.60774 -1.498707,-4.08401 -0.218652,-1.47623 -0.869418,-3.82552 -1.446121,-5.22063 -0.576756,-1.39511 -1.717921,-4.81946 -2.535988,-7.60966 -0.818008,-2.79021 -3.503434,-10.23179 -5.967606,-16.53682 -4.352447,-11.13654 -4.527412,-11.77204 -6.129726,-22.26531 -2.5069616,-16.4178 -2.0776653,-15.14838 -5.4959868,-16.25185 -3.0689445,-0.9907 -4.6241329,-2.01706 -11.2968524,-7.45541 -2.8790424,-2.34649 -4.0091066,-3.61384 -3.7724249,-4.23067 0.5331291,-1.38922 9.50442033,-16.21646 12.8150142,-21.1799 1.6491542,-2.47255 3.9630612,-5.15057 5.1419357,-5.9512 1.2606682,-0.85617 2.7215532,-2.60297 3.5471712,-4.2415 0.772074,-1.5322 1.9943,-3.29314 2.716086,-3.91319 0.721735,-0.62004 1.555025,-1.63467 1.851747,-2.25472 1.499831,-3.13449 4.339031,-18.71483 5.497724,-30.1696 0.882722,-8.72625 2.115599,-14.56883 3.268212,-15.48837 0.388597,-0.31003 1.291388,-1.39666 2.006133,-2.41473 0.792756,-1.12916 2.83609,-2.62484 5.239566,-3.8352 3.821287,-1.92439 4.033062,-1.96484 7.029068,-1.34287 1.698984,0.35272 4.4786,1.27741 6.176799,2.0549 4.498996,2.05969 4.935282,1.69921 4.458809,-3.6839 -0.591806,-6.68557 0.540394,-14.32681 2.727247,-18.40548 2.353697,-4.38988 6.343643,-6.87419 9.948532,-6.19436 1.085081,0.20464 2.799399,0.42461 3.809572,0.48883 1.255364,0.0798 2.360342,0.69009 3.4912,1.92821 0.938858,1.02791 2.216831,1.81479 2.954573,1.81915 2.984292,0.0176 3.959899,0.69453 5.269499,3.65578 1.130064,2.55523 1.238795,3.39711 0.844504,6.53972 -0.248863,1.98382 -1.215176,5.38253 -2.147391,7.55269 -0.932154,2.17016 -2.746071,7.20741 -4.030869,11.19389 -1.92231,5.96457 -2.209962,7.40003 -1.624127,8.10589 0.391536,0.47177 2.606846,1.72133 4.922947,2.7768 7.520772,3.42733 9.635352,5.87276 9.531978,11.02318 -0.02765,1.37929 0.23466,3.04028 0.58301,3.69112 0.348298,0.65082 0.633297,1.69857 0.633297,2.3283 0,1.27334 1.134677,2.50646 7.498059,8.14817 l 4.358357,3.86408 4.64077,-0.3451 c 7.51953,-0.55915 7.32591,-0.58891 8.9683,1.37839 l 1.51747,1.81771 7.78739,0.20558 c 22.02018,0.58129 49.01503,0.60432 55.27734,0.0472 5.68531,-0.50582 6.90506,-0.77303 6.90506,-1.51265 0,-0.49406 0.51577,-5.32956 1.14619,-10.74557 1.16613,-10.01802 2.05928,-18.37702 3.58189,-33.52177 0.46751,-4.65035 1.38242,-13.52829 2.03313,-19.72875 0.65071,-6.20047 1.56184,-15.45891 2.02479,-20.5743 2.28916,-25.29519 3.57441,-38.37758 4.23627,-43.12142 0.30275,-2.17015 0.78081,-6.86278 1.06226,-10.42805 0.50269,-6.367 1.96324,-21.10594 4.80379,-48.47638 0.7883,-7.59556 1.68607,-16.72716 1.99513,-20.29242 0.30901,-3.56527 0.79529,-7.7506 1.08063,-9.30071 0.28528,-1.55011 0.80189,-5.98908 1.148,-9.86437 0.70312,-7.87333 1.84604,-18.44485 3.04696,-28.18394 0.43961,-3.56528 1.22893,-11.9359 1.75394,-18.6014 1.27758,-16.21842 2.88897,-33.22407 3.89903,-41.14855 0.45443,-3.56528 0.83863,-8.14789 0.85379,-10.18362 0.0152,-2.03571 0.30524,-5.2036 0.64469,-7.03972 0.54677,-2.95778 0.50703,-3.40339 -0.3487,-3.90835 -2.34428,-1.38343 -3.12204,-2.42235 -3.59148,-4.79753 -1.51201,-7.64988 -2.4245,-10.87288 -3.77485,-13.33302 -2.11113,-3.84633 -3.07159,-4.76382 -8.38753,-8.01231 -5.78616,-3.53581 -7.84089,-5.54143 -8.86802,-8.65597 -0.95307,-2.89017 -0.7511,-4.21109 0.71514,-4.67645 2.1262,-0.67482 1.11372,-6.8266 -1.43597,-8.72553 -1.09298,-0.814 -2.34779,-1.14559 -8.4646,-2.23684 -5.03426,-0.89812 -19.66855,-3.93297 -21.98348,-4.55892 -1.24009,-0.33533 -3.44902,-0.67019 -4.90873,-0.74413 -4.37663,-0.22172 -6.79959,-3.42725 -6.25188,-8.27093 0.27029,-2.39043 0.16161,-2.66402 -1.60254,-4.03309 -1.10948,-0.86104 -2.93259,-3.44804 -4.40638,-6.25267 -2.26504,-4.31045 -2.44609,-4.93272 -1.82897,-6.28705 0.94783,-2.08027 4.57025,-3.54479 11.23141,-4.54079 5.69625,-0.85172 7.92498,-0.63779 10.51374,1.00916 1.95399,1.24313 11.59233,4.58474 25.71914,8.91677 24.13233,7.40028 25.63307,7.88099 27.62026,8.84712 l 1.97287,0.95917 -0.12598,6.32371 c -0.14256,7.15646 -1.00307,10.10289 -3.07803,10.53916 -2.92093,0.61414 -5.98006,0.99635 -8.91508,1.11383 -3.70546,0.14831 -5.33381,0.9403 -6.47649,3.14997 -1.15674,2.23684 -1.09135,3.03078 0.64168,7.79215 1.20227,3.30325 1.8434,4.294 3.24386,5.01276 0.96001,0.4927 3.84096,2.3815 6.40216,4.19732 4.23113,2.99977 6.96024,4.02678 7.64968,2.87873 0.47862,-0.79698 2.19614,-15.07783 4.05064,-33.67981 0.49452,-4.96037 1.39236,-13.20417 1.99514,-18.31955 0.60281,-5.11539 1.37307,-12.59577 1.71173,-16.62305 0.33861,-4.0273 0.85455,-7.76871 1.14652,-8.31426 0.44965,-0.84027 1.35227,-0.99194 5.90301,-0.99194 7.45826,0 7.5528,0.0749 7.5528,5.98326 l 0,4.81622 1.83195,-0.36561 c 2.84054,-0.56692 7.40318,-1.92183 8.06962,-2.39635 0.33049,-0.23532 1.39967,-1.6022 2.37602,-3.0375 0.97635,-1.43531 2.13392,-2.74731 2.57235,-2.91556 1.05904,-0.40639 2.2639,-7.07866 1.45441,-8.05407 -0.32102,-0.38679 -2.40867,-1.0179 -4.6392,-1.40243 -2.23053,-0.38453 -4.74048,-1.0392 -5.57766,-1.45483 -0.83718,-0.41561 -2.06154,-0.75566 -2.72082,-0.75566 -2.00388,0 -4.34764,-2.86641 -4.79768,-5.86759 -0.31567,-2.10481 -0.68629,-2.77755 -1.75378,-3.18342 -1.78974,-0.68045 -2.08814,-1.64185 -1.35491,-4.36485 1.19381,-4.43359 1.3487,-4.50075 13.27671,-5.75633 5.89044,-0.62006 14.76838,-1.75098 19.72875,-2.51317 4.96037,-0.7622 13.33101,-1.93758 18.6014,-2.61195 5.27041,-0.67437 11.48496,-1.48221 13.81014,-1.79519 3.7993,-0.51139 4.64583,-0.437 8.35636,0.73442 2.27083,0.7169 5.11539,2.01812 6.32116,2.89159 5.90229,4.27557 4.738,9.2034 -3.71516,15.72497 -1.72734,1.33266 -3.52033,3.15721 -3.98436,4.05454 -0.46402,0.89733 -1.1459,1.53117 -1.51523,1.40853 -1.09489,-0.36359 -1.53185,-5.97849 -0.83418,-10.71991 0.54079,-3.67566 0.51492,-4.51414 -0.15947,-5.16087 -0.81169,-0.77836 -8.4974,-2.56953 -11.02572,-2.56953 -1.7526,0 -2.22293,1.25517 -2.98626,7.96914 -0.32997,2.90252 -0.7608,6.59127 -0.95735,8.19723 l -0.35743,2.91992 1.90585,0.30184 c 8.48506,1.34391 10.37574,1.54958 11.73906,1.27691 1.41394,-0.28278 1.52954,-0.18279 1.28248,1.10949 -0.14931,0.78115 -0.80904,1.61759 -1.46606,1.85877 -1.25069,0.45911 -16.73214,-0.14878 -21.33818,-0.83785 -1.83568,-0.27462 -2.93586,-0.17841 -3.52198,0.30803 -0.64851,0.53818 -2.78818,0.61065 -8.94411,0.30291 l -8.09178,-0.4045 -0.35822,2.16826 c -0.68661,4.15596 -0.45212,6.31259 0.75674,6.95954 1.52007,0.81351 1.41839,2.37971 -0.33466,5.15678 -2.05607,3.25701 -3.90032,4.67794 -7.51841,5.79261 -5.15912,1.58947 -10.10065,4.27406 -12.03233,6.5368 -2.80255,3.28293 -4.91629,7.90542 -4.91759,10.75406 0,2.676 -2.05516,24.68011 -2.52031,27.00026 -0.15541,0.77507 -0.79017,7.75059 -1.41056,15.50117 -1.15328,14.40828 -1.61674,19.70061 -3.11009,35.51177 -0.46848,4.96037 -1.35892,15.78164 -1.97869,24.04727 -0.61982,8.26564 -1.50248,17.77772 -1.96148,21.13796 -1.05465,7.72018 -4.44889,39.059 -5.63742,52.04936 -0.49642,5.42541 -1.13969,11.89362 -1.42953,14.37381 -2.05258,17.56397 -4.3874,41.10595 -6.17736,62.28649 -0.30129,3.56527 -1.17956,11.93591 -1.95174,18.60141 -0.77218,6.6655 -1.92164,17.69951 -2.55432,24.52002 -0.63267,6.82051 -1.6625,17.22039 -2.28846,23.11083 -0.62598,5.89044 -1.38508,14.13426 -1.68694,18.31957 -0.30178,4.18531 -0.7897,9.25842 -1.08418,11.27357 -0.29451,2.01515 -0.8264,6.70778 -1.18203,10.42806 -0.35562,3.72028 -0.89376,8.66656 -1.19589,10.99174 -0.30214,2.32517 -0.76402,7.27145 -1.02641,10.99173 -0.26239,3.72028 -0.89248,10.6958 -1.40023,15.50117 -1.41156,13.35958 -1.45864,12.5216 0.73915,13.16718 2.74748,0.80706 3.70049,2.58645 3.28117,6.12659 -0.37637,3.17787 -0.90668,3.72181 -4.5636,4.68085 -1.6398,0.43006 -2.31278,0.94502 -2.57821,1.97288 -0.39558,1.53188 0.17891,10.24932 2.28341,34.64797 0.86581,10.03765 1.05645,14.14033 1.66297,35.79359 0.56621,20.21561 1.21072,32.2285 2.29833,42.83958 0.56712,5.5333 0.90037,13.02589 1.19839,26.94435 0.1704,7.95852 0.15523,8.07431 -1.19055,9.09286 -1.47335,1.11509 -7.42343,2.29295 -11.58308,2.29295 -2.25388,0 -2.6529,-0.18417 -3.1326,-1.4459 -0.30235,-0.79524 -0.5497,-3.26606 -0.5497,-5.49073 0,-2.22467 -0.2585,-8.73978 -0.57438,-14.47803 -0.31589,-5.73825 -0.95139,-18.93065 -1.41219,-29.31643 -0.46081,-10.38578 -1.45412,-31.31235 -2.20731,-46.5035 -0.75319,-15.19113 -1.5407,-32.21747 -1.74999,-37.83629 l -0.38061,-10.21605 2.92364,-0.70136 c 1.608,-0.38576 3.05925,-1.05483 3.22503,-1.48683 0.22947,-0.59801 -1.63501,-6.3815 -2.39496,-7.42896 -0.0696,-0.0958 -2.50003,-0.51588 -5.40105,-0.93341 -2.90108,-0.41752 -6.79656,-1.16823 -8.6567,-1.66824 -1.86014,-0.50002 -4.90401,-0.91317 -6.76414,-0.91814 -5.574,-0.0148 -20.97596,-1.08369 -27.90211,-1.93626 -3.56526,-0.43886 -10.45489,-0.97427 -15.31019,-1.18976 l -8.82789,-0.39181 -0.19097,1.33698 c -0.12655,0.88569 -1.22532,2.02215 -3.25524,3.36676 -2.18431,1.4469 -3.34515,2.6912 -4.04248,4.33316 -0.96705,2.27694 -1.01964,2.30783 -4.5831,2.68944 -4.474374,0.47915 -10.773823,-1.20335 -13.546278,-3.61805 -1.001266,-0.87208 -2.590163,-1.97948 -3.53094,-2.46092 -0.940775,-0.48143 -3.223676,-2.657 -5.073108,-4.83461 -1.849433,-2.1776 -3.520686,-3.97494 -3.713801,-3.9941 -0.193116,-0.0191 -1.816621,2.56515 -3.607714,5.74288 -2.958858,5.24951 -3.302819,6.21573 -3.762611,10.56897 -0.278288,2.6352 -0.778156,5.8059 -1.110843,7.046 -0.906168,3.37821 -0.569931,10.87562 0.565767,12.61344 0.823484,1.26015 0.934581,3.44619 0.90482,17.80421 -0.02704,13.11084 -0.196951,16.70418 -0.853134,18.05871 -0.450548,0.93007 -1.196238,1.69104 -1.657102,1.69104 -0.460864,0 -0.831364,0.25365 -0.823363,0.56366 0.06384,2.47107 1.600793,14.92572 2.262323,18.33243 1.024824,5.27816 1.018232,8.31341 -0.02194,10.13336 -0.443111,0.77505 -0.814578,2.21706 -0.825566,3.20446 -0.01132,0.98739 -0.26279,2.4339 -0.559565,3.21449 -0.296775,0.78058 -0.700318,4.48372 -0.89676,8.22921 -0.196441,3.74546 -0.600763,8.25986 -0.898496,10.03196 -0.297743,1.77209 -0.757025,4.87074 -1.020549,6.88589 -0.263575,2.01515 -0.65606,4.45481 -0.872174,5.42146 l -0.392995,1.75755 3.01489,0.25586 c 5.730129,0.48622 9.077655,3.18946 7.60572,6.14184 -0.930919,1.86725 -4.492414,3.71994 -7.99145,4.15707 -5.399584,0.67467 -5.437415,0.809 -2.574821,9.14637 1.36387,3.97234 2.758978,7.75874 3.100226,8.41424 0.91581,1.75913 8.040546,7.70279 12.051061,10.05327 3.765712,2.20703 4.905695,3.64025 4.332325,5.44672 -0.873478,2.75215 -9.202962,4.26264 -16.42887,2.97926 l -2.08e-4,10e-6 z M 167.81178,324.85913 c 0.65921,-0.83194 2.0979,-16.39714 1.62858,-17.62014 -0.2598,-0.67705 -1.57819,-0.84034 -6.78449,-0.84034 -7.38245,0 -6.69634,-0.56015 -7.59496,6.20046 -1.18028,8.87908 -1.27014,11.07544 -0.48003,11.7312 0.4151,0.34445 3.277,0.70979 6.35987,0.81188 3.08288,0.10207 5.76442,0.23867 5.95893,0.30356 0.19459,0.0649 0.605,-0.19909 0.9121,-0.58662 z m 137.31896,566.25093 c -1.36218,-0.13731 -2.75093,-0.69513 -3.33348,-1.33885 -0.88155,-0.97404 -0.90702,-1.27436 -0.21753,-2.56271 0.42958,-0.80267 2.75786,-3.10818 5.17395,-5.12337 4.04722,-3.37571 10.01269,-10.92033 10.01269,-12.66333 0,-0.44678 -1.3048,-0.52501 -4.42189,-0.26504 -3.28986,0.27434 -5.04239,0.14982 -6.84566,-0.4864 -3.63589,-1.28282 -4.00364,-2.03545 -3.85725,-7.89365 0.12755,-5.104 -0.26341,-8.44261 -1.27928,-10.92448 -0.49406,-1.20713 -0.79506,-1.30824 -2.99533,-1.00668 -2.00399,0.27468 -2.63198,0.12976 -3.47524,-0.802 -0.84519,-0.93396 -1.4371,-1.06942 -3.31021,-0.75776 -1.25452,0.20879 -3.29554,0.91604 -4.53564,1.57176 -2.00957,1.0626 -3.04809,1.17702 -9.55171,1.0525 -8.01923,-0.15348 -9.89521,-0.75977 -9.89521,-3.19779 0,-1.13357 0.53104,-1.55508 3.24116,-2.57241 1.78264,-0.6692 4.56106,-1.43315 6.17436,-1.69774 3.0972,-0.50793 5.24013,-1.40199 5.24013,-2.18623 0,-0.25885 -1.15171,-0.79304 -2.55938,-1.18717 -1.40763,-0.39412 -2.78267,-1.1339 -3.05565,-1.64391 -0.28623,-0.53487 -0.28415,-2.82724 0.006,-5.41627 0.2757,-2.46887 1.04377,-9.30832 1.70688,-15.19876 0.66311,-5.89045 1.49583,-15.29182 1.8505,-20.89191 l 0.64491,-10.18202 3.17864,-4.19179 c 1.7483,-2.30548 3.58387,-4.99759 4.07912,-5.98248 0.87884,-1.74765 0.84624,-1.90693 -1.35402,-6.62524 -4.01998,-8.62051 -5.47636,-12.8702 -5.90515,-17.23145 -0.3952,-4.01936 -1.41759,-6.75317 -3.76904,-10.07806 -0.69501,-0.98265 -1.32515,-1.26903 -2.35809,-1.07157 -0.77528,0.14822 -1.65541,0.11754 -1.9558,-0.0681 -0.30038,-0.1857 -1.70028,-2.75824 -3.11088,-5.71677 -2.07452,-4.35097 -2.69518,-6.39805 -3.24725,-10.7099 -0.37541,-2.93192 -0.95159,-5.67939 -1.28039,-6.1055 -0.61385,-0.79545 -0.37592,-0.79968 -15.56273,0.27647 -2.88862,0.20469 -5.71919,0.0889 -7.12804,-0.29158 -2.004,-0.54123 -2.47229,-0.9714 -3.28845,-3.02086 -0.52337,-1.31436 -1.323,-2.80369 -1.77698,-3.30962 -0.71031,-0.79166 -0.73122,-1.97003 -0.14972,-8.45518 0.6081,-6.78256 0.82787,-7.7324 2.20026,-9.50819 2.40792,-3.1158 2.79393,-4.17215 3.00361,-8.22016 0.16223,-3.13157 0.42204,-3.98283 1.47588,-4.83617 0.70341,-0.56959 1.59149,-1.03564 1.97355,-1.03564 0.66846,0 2.62551,-6.24634 3.44385,-10.99174 0.21386,-1.24009 0.70719,-2.6352 1.0963,-3.10024 1.02849,-1.22922 1.60254,-3.31432 1.70693,-6.20046 0.13179,-3.64373 1.19303,-10.78958 3.13908,-21.13796 3.26313,-17.35205 3.56267,-19.51385 2.77137,-20.00291 -0.39688,-0.2453 -2.82943,-0.86459 -5.40562,-1.37621 l -4.684,-0.93023 -6.2256,3.12226 c -3.42423,1.71723 -6.70208,3.12224 -7.28425,3.12224 -0.76705,0 -1.3946,-0.87816 -2.27889,-3.18906 -0.78629,-4.93923 -0.85555,-14.33758 0.58341,-19.499 0.81445,-2.72306 1.40552,-3.80484 2.07884,-3.80484 0.51746,0 3.47683,0.64478 6.57633,1.43287 3.09949,0.78807 8.89365,2.14668 12.87594,3.01912 6.26658,1.37291 7.32799,1.47622 7.89149,0.76819 2.28877,-2.87597 3.23169,-3.52914 5.09459,-3.52914 2.52472,0 3.72981,1.2475 3.72981,3.86103 0,2.4966 -5.98948,24.62102 -10.38736,38.36969 -1.72751,5.40055 -3.14093,10.02977 -3.14093,10.28715 0,0.8312 1.10098,0.5014 3.39577,-1.01724 1.23434,-0.81686 3.32159,-1.7253 4.63829,-2.01877 5.20596,-1.16036 6.39679,-1.14253 8.93837,0.13381 4.13435,2.07621 6.06619,4.35905 7.35578,8.69217 0.78543,2.63928 2.07247,10.56861 1.97214,12.15046 -0.0809,1.27397 0.20506,1.46632 3.01094,2.02565 3.74819,0.74719 6.87739,2.29088 10.09781,4.98143 1.32538,1.10733 2.61196,2.01333 2.85915,2.01333 1.39898,0 6.50033,5.64375 8.13218,8.99683 1.83658,3.77377 6.08632,10.39052 7.06008,10.99231 0.57828,0.35741 7.56481,12.02108 9.56649,15.97079 0.67483,1.33157 2.07089,3.36081 3.10237,4.50943 1.03148,1.14862 2.54562,3.41805 3.36482,5.04318 0.86779,1.72151 4.08397,5.6879 7.7056,9.50297 6.63546,6.98992 8.52141,9.99629 10.96293,17.47554 1.9519,5.97953 1.86515,6.76382 -1.04907,9.48482 -1.35136,1.26177 -3.03608,3.43556 -3.74384,4.83067 -0.70775,1.39511 -2.44061,4.18531 -3.85077,6.20047 -4.62745,6.61276 -5.53046,8.13324 -6.8625,11.5554 -2.48442,6.38275 -6.53286,14.24765 -9.95552,19.34049 -1.3145,1.95597 -3.12837,7.43019 -3.13964,9.4755 -0.006,0.65764 1.06851,2.55583 2.38251,4.21818 3.05874,3.86959 3.21043,4.31389 3.96154,11.60135 0.34552,3.35253 0.98057,8.12481 1.41116,10.605 0.43059,2.48018 1.07977,7.04599 1.44267,10.14622 0.3629,3.10024 1.25002,7.93913 1.97136,10.75313 0.72134,2.81394 1.18198,5.61187 1.02359,6.2176 -0.19971,0.76373 0.4134,1.81685 2.00005,3.43551 2.53068,2.58165 2.70226,3.51769 1.73156,9.4455 -0.65911,4.02506 -2.20308,5.83199 -5.39237,6.31072 -1.64573,0.24706 -2.95763,1.04444 -5.04279,3.06489 -1.88387,1.82536 -3.85641,3.08794 -5.94879,3.80771 -3.24195,1.11512 -10.3541,1.80067 -14.42387,1.39025 l -6.7e-4,-2e-5 z M 256.78542,701.1858 c 1.57808,-0.73481 3.86097,-1.67722 5.07311,-2.09423 1.84927,-0.63625 2.2904,-1.1003 2.74173,-2.88437 0.82967,-3.27962 -0.0254,-3.61252 -8.98955,-3.50062 -4.13571,0.0517 -7.66473,0.23924 -7.84235,0.4169 -0.17761,0.17767 -0.54468,1.82643 -0.81564,3.66391 -0.27102,1.83749 -0.66147,3.73323 -0.86767,4.21276 -0.99173,2.30631 5.88954,2.42569 10.70037,0.18565 z m 0.21566,-17.9494 c 0.54457,-0.65618 0.49531,-1.32723 -0.23827,-3.24816 -1.29453,-3.38966 -2.67274,-9.38813 -2.65763,-11.5669 0.01,-1.41071 -0.22694,-1.83195 -1.02934,-1.83195 -1.1473,0 -2.24479,2.79647 -3.41024,8.68978 -0.60698,3.06908 -0.5722,3.40598 0.43639,4.2276 0.60274,0.49101 1.66139,1.71713 2.35251,2.7247 1.36344,1.98772 3.36392,2.42989 4.54658,1.00493 z"
       style="fill:#000000"
       sodipodi:nodetypes="cssssssssssssssssssssssssssssssssssssssssssssssccccccsssssssssssssssssssssssssssssssssscccsssssssssssscccssssssssssssssssssssssscccssssscccssssssssssssssssssssssssssssssssssssscccsssssscccsssssssssssssssssssssscccsssssscccssssssccssssssssssssssssssssscccssssssssssssssssssssssscccscccssssssssssssssssssssssssssssssssssssssscccssssssccssssssc" />
  </g>
</svg>
